<?xml version="1.0" encoding="UTF-8" standalone="no"?>
<svg xmlns="http://www.w3.org/2000/svg"
     xmlns:svg="http://www.w3.org/2000/svg"
     version="1.1"
     width="4.05556in" height="3.94444in"
     bgcolor="white"
     viewBox="0 0 292 284">
  <path id="path1"
        fill="rgb(108, 66, 37)"
        d="M 172.00,283.00
           C 172.00,283.00 83.00,283.00 83.00,283.00
             73.67,282.99 61.51,281.08 53.00,277.23
             39.38,271.07 30.04,264.66 20.32,253.00
             -0.01,228.61 -4.02,187.45 6.08,158.00
             10.37,145.49 16.95,135.06 25.44,125.00
             39.21,108.67 59.00,98.18 79.00,91.51
             95.05,86.16 113.21,82.25 127.00,72.08
             138.02,63.95 142.39,55.23 149.20,44.00
             151.34,40.48 156.35,33.32 157.60,30.00
             160.32,22.78 153.63,11.72 164.04,3.42
             165.57,2.20 167.14,1.39 169.00,0.80
             171.15,0.13 173.76,-0.06 176.00,0.10
             183.46,0.61 187.08,4.88 192.00,6.35
             195.70,7.47 209.23,6.95 214.00,7.00
             221.37,7.09 231.72,8.97 239.00,10.58
             264.43,16.18 292.71,24.25 291.99,56.00
             291.65,70.66 284.95,86.67 271.00,93.10
             257.57,99.29 240.54,96.89 232.33,114.00
             232.33,114.00 218.58,162.00 218.58,162.00
             218.58,162.00 194.46,208.00 194.46,208.00
             192.03,214.35 190.48,225.15 190.09,232.00
             189.50,242.44 193.42,258.04 202.00,264.58
             210.91,271.38 221.44,266.79 224.00,283.00
             214.53,283.00 202.25,284.10 194.00,278.87
             185.32,273.37 180.78,263.64 178.37,254.00
             173.49,234.38 175.83,211.17 184.76,193.00
             192.37,177.50 203.43,163.45 209.00,147.00
             214.02,132.17 213.98,113.22 222.10,101.00
             227.19,93.34 234.22,88.43 243.00,85.91
             253.21,82.97 264.27,82.89 271.61,73.96
             276.83,67.62 280.08,53.66 276.43,46.00
             274.70,42.37 270.26,37.97 267.00,35.63
             262.17,32.18 255.61,30.20 250.00,28.33
             240.07,25.04 218.10,19.65 208.00,20.04
             203.77,20.20 194.42,22.24 191.00,21.31
             183.78,19.37 177.46,6.44 170.57,13.43
             163.56,20.54 174.71,28.89 173.17,35.00
             172.43,37.93 165.86,45.89 163.75,49.00
             153.85,63.57 153.74,68.68 139.00,81.83
             126.29,93.16 109.83,97.10 94.00,102.02
             80.56,106.20 68.95,110.83 57.00,118.44
             24.32,139.24 7.21,178.34 18.29,216.00
             21.15,225.69 25.71,235.27 32.30,243.00
             36.25,247.63 42.92,254.13 48.00,257.46
             58.36,264.24 77.59,270.32 90.00,268.71
             130.37,263.47 157.53,223.22 138.89,185.00
             130.25,167.29 112.32,154.03 93.00,150.61
             85.32,149.26 77.20,151.61 73.00,150.00
             98.95,139.70 129.64,149.71 146.08,172.00
             154.98,184.07 159.17,199.10 159.00,214.00
             158.73,237.61 148.66,251.59 133.00,268.00
             147.07,268.00 168.94,264.28 172.00,283.00 Z
           M 205.00,36.00
           C 214.52,32.91 221.50,32.21 228.00,41.00
             218.42,43.54 211.70,44.82 205.00,36.00 Z">
        <title>Kapivatar</title>
  </path>
</svg>
